<?xml version="1.0" encoding="UTF-8" standalone="no"?>
<svg
   xmlns:dc="http://purl.org/dc/elements/1.1/"
   xmlns:cc="http://creativecommons.org/ns#"
   xmlns:rdf="http://www.w3.org/1999/02/22-rdf-syntax-ns#"
   xmlns:svg="http://www.w3.org/2000/svg"
   xmlns="http://www.w3.org/2000/svg"
   xmlns:sodipodi="http://sodipodi.sourceforge.net/DTD/sodipodi-0.dtd"
   xmlns:inkscape="http://www.inkscape.org/namespaces/inkscape"
   id="Layer_1"
   style="enable-background:new 0 0 797.3 185.2"
   xml:space="preserve"
   version="1.1"
   y="0px"
   x="0px"
   viewBox="0 0 797.3 185.2"
   sodipodi:docname="Wikimedia_France_logo_-_horizontal.svg"
   inkscape:version="0.92.4 (5da689c313, 2019-01-14)"><defs
     id="defs31" /><sodipodi:namedview
     pagecolor="#ffffff"
     bordercolor="#666666"
     borderopacity="1"
     objecttolerance="10"
     gridtolerance="10"
     guidetolerance="10"
     inkscape:pageopacity="0"
     inkscape:pageshadow="2"
     inkscape:window-width="1850"
     inkscape:window-height="1016"
     id="namedview29"
     showgrid="false"
     inkscape:lockguides="false"
     inkscape:zoom="0.56440488"
     inkscape:cx="-38.979111"
     inkscape:cy="92.599998"
     inkscape:window-x="70"
     inkscape:window-y="27"
     inkscape:window-maximized="1"
     inkscape:current-layer="Layer_1" /><metadata
     id="metadata58"><rdf:RDF><cc:Work
         rdf:about=""><dc:format>image/svg+xml</dc:format><dc:type
           rdf:resource="http://purl.org/dc/dcmitype/StillImage" /><dc:title></dc:title></cc:Work></rdf:RDF></metadata><g
     id="g20"><path
       id="path2"
       d="m243.2 78.4l11.9-38.6h15.6l11.8 38.6 13.3-38.6h16.2l-23.4 67.1h-11.1l-14.7-46.7-14.6 46.7h-11.1l-23.4-67.1h16.2l13.3 38.6z" /><path
       id="path4"
       d="m320.1 39.8h15v67.1h-15v-67.1z" /><path
       id="path6"
       d="m351.6 39.8h15v27.6l25.3-27.6h18.5l-26.7 29.7c2.3 3.2 6.6 9.2 12.8 17.9s10.8 15.2 13.9 19.5h-17.5l-19.7-26.5-6.7 7.5v19h-15v-67.1z" /><path
       id="path8"
       d="m419.7 39.8h15v67.1h-15v-67.1z" /><path
       id="path10"
       d="m511.3 64.7l-18.1 36.7h-8.9l-18-36.7v42.2h-15v-67.1h20.3l17.3 36.9 17.4-36.9h20.2v67.1h-15v-42.2z" /><path
       id="path12"
       d="m591.2 39.8v13.3h-33.4v13.9h30v12.8h-30v13.9h34.5v13.2h-49.4v-67.1h48.3z" /><path
       id="path14"
       d="m656.8 48.6c6.4 5.9 9.6 14 9.6 24.4s-3.1 18.7-9.4 24.8c-6.2 6.1-15.8 9.1-28.6 9.1h-22.9v-67.1h23.7c12.1 0 21.2 3 27.6 8.8zm-10.9 39.9c3.7-3.5 5.5-8.5 5.5-15.1s-1.8-11.7-5.5-15.2c-3.7-3.6-9.3-5.3-16.9-5.3h-8.4v40.8h9.5c6.8 0 12.1-1.7 15.8-5.2z" /><path
       id="path16"
       d="m679.4 39.8h15v67.1h-15v-67.1z" /><path
       id="path18"
       d="m758.7 106.9l-6.2-14.5h-28.1l-6.2 14.5h-15.9l29-67.1h14.5l29 67.1h-16.1zm-20.3-47.1l-8.4 19.5h16.8l-8.4-19.5z" /></g><g
     id="g51"><path
       id="path44"
       d="m108.3 144.4c25.3-3.6 44.7-25.3 44.7-51.5 0-16-7.2-30.2-18.5-39.8l-26.2 26.2v65.1z" /><path
       id="path46"
       d="m93.6 144.4v-65.1l-26.2-26.3c-11.3 9.5-18.5 23.8-18.5 39.8 0 26.3 19.4 48 44.7 51.6z" /><path
       id="path48"
       d="m146.2 47.6c12.1 12.1 18.7 28.2 18.7 45.2s-6.7 33.2-18.7 45.2c-12.1 12.1-28.2 18.7-45.2 18.7s-33.2-6.7-45.2-18.7-18.8-28.1-18.8-45.2c0-17.1 6.7-33.2 18.7-45.2 1-1 2.1-2 3.2-3l-14.6-14.6c-1.1 1-2.1 2-3.2 3-7.8 7.8-13.9 16.8-18.1 26.9-4.4 10.4-6.7 21.5-6.7 32.9s2.2 22.5 6.7 32.9c4.3 10.1 10.4 19.1 18.1 26.9 7.8 7.8 16.8 13.9 26.9 18.1 10.4 4.4 21.5 6.7 32.9 6.7s22.5-2.2 32.9-6.7c10.1-4.3 19.1-10.4 26.9-18.1 7.8-7.8 13.9-16.8 18.1-26.9 4.4-10.4 6.7-21.5 6.7-32.9s-2.2-22.5-6.7-32.9c-4.3-10.1-10.4-19.1-18.1-26.9-1-1-2.1-2-3.2-3l-14.5 14.6c1.1 0.9 2.1 1.9 3.2 3z" /><circle
       id="red_circle_3_"
       cx="100.9"
       cy="34.1"
       r="26.4" /></g><text
     xml:space="preserve"
     style="font-style:normal;font-variant:normal;font-weight:normal;font-stretch:normal;font-size:56px;line-height:1.25;font-family:montserrat;-inkscape-font-specification:montserrat;letter-spacing:0px;word-spacing:0px;fill:#000000;fill-opacity:1;stroke:none"
     x="232.32831"
     y="163.48222"
     id="text840"><tspan
       sodipodi:role="line"
       id="tspan838"
       x="232.32831"
       y="163.48222"
       style="font-style:normal;font-variant:normal;font-weight:600;font-stretch:normal;font-size:42.66666794px;font-family:montserrat;-inkscape-font-specification:'montserrat Semi-Bold';letter-spacing:26.37003326px"
       dx="0">FRANCE</tspan></text>
</svg>